<svg width="48" height="49" viewBox="0 0 48 49" fill="none" xmlns="http://www.w3.org/2000/svg">
<path d="M34.2844 31.2249C34.79 31.2249 35.2749 31.0241 35.6324 30.6666C35.9899 30.3091 36.1907 29.8242 36.1907 29.3186C36.1907 28.813 35.9899 28.3282 35.6324 27.9707C35.2749 27.6132 34.79 27.4123 34.2844 27.4123C33.7789 27.4123 33.294 27.6132 32.9365 27.9707C32.579 28.3282 32.3781 28.813 32.3781 29.3186C32.3781 29.8242 32.579 30.3091 32.9365 30.6666C33.294 31.0241 33.7789 31.2249 34.2844 31.2249ZM10.793 31.2249C11.8421 31.2249 12.6947 30.3723 12.6947 29.3186C12.6947 28.8136 12.4941 28.3293 12.1371 27.9723C11.78 27.6152 11.2957 27.4146 10.7907 27.4146C10.2857 27.4146 9.80146 27.6152 9.44439 27.9723C9.08732 28.3293 8.88672 28.8136 8.88672 29.3186C8.88672 30.3723 9.73929 31.2249 10.793 31.2249ZM17.1416 18.5243C17.647 18.5246 18.1318 18.3241 18.4895 17.967C18.8471 17.6098 19.0481 17.1252 19.0484 16.6197C19.0487 16.1143 18.8482 15.6295 18.4911 15.2719C18.1339 14.9143 17.6493 14.7132 17.1439 14.7129C16.6384 14.7126 16.1536 14.9131 15.796 15.2703C15.4384 15.6274 15.2373 16.112 15.237 16.6175C15.2367 17.1229 15.4372 17.6077 15.7944 17.9653C16.1515 18.3229 16.6361 18.524 17.1416 18.5243Z" fill="#564DCA" stroke="#564DCA" stroke-width="3" stroke-miterlimit="10"/>
<path d="M43.8066 29.3185H39.9986M23.4901 16.618H27.3026C27.9754 16.6184 28.6208 16.3516 29.0969 15.8762C29.5701 15.3985 29.8375 14.7517 29.8375 14.082V9.00195M15.8729 29.3185H26.0295C26.7038 29.3185 27.3518 29.586 27.8238 30.0637C28.3026 30.5368 28.5701 31.1837 28.5701 31.858V39.4797M3.80664 22.97H41.9049M3.80664 34.3985H24.7621" stroke="#00B67A" stroke-width="3" stroke-miterlimit="10" stroke-linecap="round"/>
<path d="M36.3651 18.421C36.4588 17.9341 36.5034 17.4347 36.508 16.9387C36.508 15.3318 36.0623 13.7604 35.2143 12.3981C34.367 11.0372 33.1539 9.94215 31.7137 9.23813C30.2739 8.53169 28.6646 8.2441 27.0692 8.40819C25.4738 8.57227 23.9567 9.18141 22.6908 10.1661C21.1983 8.99609 19.3554 8.36246 17.4588 8.36728C16.3331 8.36682 15.2183 8.58822 14.1782 9.01882C13.138 9.44941 12.1929 10.0808 11.3969 10.8768C10.6009 11.6728 9.96956 12.6179 9.53896 13.658C9.10837 14.6982 8.88697 15.813 8.88742 16.9387C8.88742 17.4701 8.94113 18.0016 9.03942 18.5238C6.64776 19.3835 4.63574 21.0589 3.35713 23.2553C2.08129 25.454 1.61967 28.0315 2.05313 30.5364C2.48951 33.0415 3.7967 35.312 5.74405 36.9471C7.6914 38.5823 10.1537 39.4771 12.6966 39.4736H33.0166C35.5846 39.4765 38.0692 38.5617 40.0223 36.8941C41.9762 35.2261 43.2723 32.9167 43.6783 30.3798C44.0802 27.8431 43.5657 25.246 42.2269 23.0541C40.8858 20.8621 38.8077 19.2195 36.3651 18.421Z" stroke="#564DCA" stroke-width="3" stroke-miterlimit="10" stroke-linecap="round"/>
</svg>
