<svg width="48" height="49" viewBox="0 0 48 49" fill="none" xmlns="http://www.w3.org/2000/svg">
<path d="M27.6471 6.60717L22.942 4.20831C22.9172 4.19095 22.8877 4.18164 22.8574 4.18164C22.8271 4.18164 22.7976 4.19095 22.7728 4.20831L18.0677 6.60831L14.2174 4.41402C14.1923 4.39352 14.1607 4.38259 14.1283 4.38317C14.0955 4.38394 14.064 4.39605 14.0391 4.41745C14.0128 4.43574 13.9991 4.46774 13.99 4.4986C13.9854 4.5305 13.9902 4.56305 14.0037 4.59231L15.6688 9.6026H30.0437L31.7088 4.59345C31.7224 4.5642 31.7271 4.53165 31.7225 4.49974C31.7134 4.46888 31.6997 4.43688 31.6734 4.41974C31.6487 4.39793 31.6172 4.3854 31.5843 4.38431C31.5518 4.38373 31.5202 4.39466 31.4951 4.41517L27.6471 6.60717Z" fill="#00B67A" stroke="#00B67A" stroke-width="3" stroke-miterlimit="10" stroke-linecap="round"/>
<path d="M41.1833 16.6021V35.4855H27.2999L23.0679 41.8387C23.0447 41.8735 23.0138 41.9024 22.9776 41.9233C22.9401 41.941 22.8991 41.9503 22.8576 41.9503C22.8161 41.9503 22.7751 41.941 22.7376 41.9233C22.7014 41.9024 22.6705 41.8735 22.6473 41.8387L18.4153 35.5301H7.87587C6.9923 35.5298 6.14493 35.179 5.51972 34.5546C4.89451 33.9303 4.54253 33.0834 4.54102 32.1998V13.3164H37.8622C38.7376 13.3164 39.5764 13.665 40.197 14.281C40.8176 14.8924 41.1742 15.7267 41.1833 16.6021Z" fill="#564DCA" stroke="#564DCA" stroke-width="3" stroke-miterlimit="10"/>
<path d="M4.53125 32.7543L13.4147 23.8652L18.4147 28.8652L27.2992 19.9772L32.2993 24.9772L41.1827 16.0938" stroke="#00B67A" stroke-width="3" stroke-miterlimit="10"/>
</svg>
