<svg width="48" height="49" viewBox="0 0 48 49" fill="none" xmlns="http://www.w3.org/2000/svg">
<path d="M15.1539 27.0475C12.1715 26.6238 9.13859 27.333 6.65324 29.0352C4.16789 30.7373 2.41051 33.309 1.72766 36.2429C1.34138 37.9046 2.02481 39.6303 3.46023 40.5378C5.34481 41.7286 8.46595 43.1881 12.6339 43.3618M23.7848 32.7629C24.4271 33.8258 24.9105 34.9983 25.2008 36.2429C25.4412 37.2698 25.271 38.35 24.7265 39.2532M13.4568 22.0463C16.5699 22.0463 19.0934 19.3858 19.0934 16.1046C19.0934 12.8246 16.5699 10.1641 13.4568 10.1641C10.3448 10.1641 7.82252 12.8246 7.82252 16.1046C7.82252 19.3858 10.3448 22.0463 13.4568 22.0463Z" fill="#00B67A"/>
<path d="M15.1539 27.0475C12.1715 26.6238 9.13859 27.333 6.65324 29.0352C4.16789 30.7373 2.41051 33.309 1.72766 36.2429C1.34138 37.9046 2.02481 39.6303 3.46023 40.5378C5.34481 41.7286 8.46595 43.1881 12.6339 43.3618M23.7848 32.7629C24.4271 33.8258 24.9105 34.9983 25.2008 36.2429C25.4412 37.2698 25.271 38.35 24.7265 39.2532M13.4568 22.0463C16.5699 22.0463 19.0934 19.3858 19.0934 16.1046C19.0934 12.8246 16.5699 10.1641 13.4568 10.1641C10.3448 10.1641 7.82252 12.8246 7.82252 16.1046C7.82252 19.3858 10.3448 22.0463 13.4568 22.0463Z" stroke="#00B67A" stroke-width="3" stroke-miterlimit="10" stroke-linecap="round" stroke-linejoin="round"/>
<path d="M46.3091 36.2608C46.7993 38.3637 45.9319 40.5694 44.1033 41.7237C41.5605 43.3351 37.2119 45.3374 31.3811 45.3374C25.5513 45.3374 21.2119 43.3362 18.6588 41.7225C16.8313 40.5682 15.9639 38.374 16.4531 36.2597C18.0256 29.4711 24.1113 24.4162 31.3811 24.4162C38.6508 24.4162 44.7262 29.4802 46.3091 36.2608ZM31.3719 18.9831C35.3296 18.9831 38.5388 15.6002 38.5388 11.4277C38.5388 7.25395 35.3296 3.87109 31.3719 3.87109C27.4131 3.87109 24.2039 7.25395 24.2039 11.4277C24.2039 15.5991 27.4131 18.982 31.3708 18.982L31.3719 18.9831Z" fill="#564DCA" stroke="#564DCA" stroke-width="3" stroke-miterlimit="10" stroke-linecap="round" stroke-linejoin="round"/>
</svg>
