<svg width="48" height="49" viewBox="0 0 48 49" fill="none" xmlns="http://www.w3.org/2000/svg">
<path d="M11.8581 16.0371H3.14383C2.85506 16.0374 2.57821 16.1523 2.37402 16.3564C2.16984 16.5606 2.05499 16.8375 2.05469 17.1263V41.4577C2.05469 42.0588 2.54154 42.5457 3.14383 42.5457H11.8581C12.0012 42.5458 12.1429 42.5178 12.2751 42.4631C12.4073 42.4084 12.5274 42.3282 12.6286 42.227C12.7298 42.1258 12.81 42.0057 12.8647 41.8735C12.9193 41.7413 12.9474 41.5996 12.9473 41.4565V17.1263C12.947 16.8375 12.8321 16.5606 12.6279 16.3564C12.4237 16.1523 12.1469 16.0374 11.8581 16.0371Z" fill="#00B67A" stroke="#00B67A" stroke-width="3" stroke-miterlimit="10" stroke-linecap="round"/>
<path d="M27.2147 28.1445H18.5004C18.3576 28.1441 18.2161 28.1718 18.084 28.2261C17.9519 28.2803 17.8318 28.3601 17.7305 28.4608C17.6293 28.5616 17.5488 28.6813 17.4939 28.8131C17.4389 28.9449 17.4105 29.0863 17.4102 29.2291V41.4577C17.4102 42.0588 17.897 42.5457 18.5004 42.5457H27.2147C27.3578 42.5458 27.4995 42.5178 27.6317 42.4631C27.7639 42.4084 27.884 42.3282 27.9852 42.227C28.0864 42.1258 28.1666 42.0057 28.2213 41.8735C28.276 41.7413 28.304 41.5996 28.3039 41.4565V29.228C28.303 28.9399 28.1877 28.664 27.9835 28.4608C27.7793 28.2577 27.5028 28.1439 27.2147 28.1445Z" fill="#564DCA" stroke="#564DCA" stroke-width="3" stroke-miterlimit="10"/>
<path d="M42.5573 36.8184H33.8431C33.7 36.8182 33.5583 36.8463 33.4261 36.901C33.2939 36.9556 33.1737 37.0359 33.0726 37.137C32.9714 37.2382 32.8912 37.3583 32.8365 37.4905C32.7818 37.6227 32.7538 37.7644 32.7539 37.9075V41.4652C32.7539 42.0675 33.2408 42.5544 33.8431 42.5544H42.5573C42.7004 42.5545 42.8421 42.5264 42.9743 42.4718C43.1065 42.4171 43.2266 42.3369 43.3278 42.2357C43.429 42.1345 43.5092 42.0144 43.5639 41.8822C43.6186 41.75 43.6466 41.6083 43.6465 41.4652V37.9075C43.6466 37.7644 43.6186 37.6227 43.5639 37.4905C43.5092 37.3583 43.429 37.2382 43.3278 37.137C43.2266 37.0359 43.1065 36.9556 42.9743 36.901C42.8421 36.8463 42.7004 36.8182 42.5573 36.8184Z" fill="#564DCA" stroke="#564DCA" stroke-width="3" stroke-miterlimit="10" stroke-linecap="round"/>
<path d="M8.74023 4L33.3037 24.0937L40.5574 16.8389" stroke="#564DCA" stroke-width="3" stroke-miterlimit="10"/>
<path d="M42.1529 15.1914L39.9381 22.5274C39.5581 21.3948 38.9068 20.3723 38.0409 19.5491C37.1722 18.7284 36.1142 18.1348 34.9609 17.8211L42.1529 15.1914Z" fill="#564DCA"/>
<path d="M31.42 12.9512C31.9141 12.9341 32.3823 12.7258 32.7258 12.3702C33.0694 12.0145 33.2614 11.5394 33.2614 11.045C33.2614 10.5505 33.0694 10.0754 32.7258 9.71975C32.3823 9.36412 31.9141 9.15579 31.42 9.13867C30.9144 9.13867 30.4295 9.33951 30.072 9.69701C29.7145 10.0545 29.5137 10.5394 29.5137 11.045C29.5137 11.5505 29.7145 12.0354 30.072 12.3929C30.4295 12.7504 30.9144 12.9512 31.42 12.9512Z" fill="#00B67A" stroke="#00B67A" stroke-width="3" stroke-miterlimit="10" stroke-linecap="round"/>
</svg>
