<svg width="48" height="49" viewBox="0 0 48 49" fill="none" xmlns="http://www.w3.org/2000/svg">
<path d="M6.53906 32.616C6.53876 31.9816 6.66347 31.3534 6.90607 30.7672C7.14866 30.1811 7.50439 29.6484 7.95291 29.1998C8.40144 28.7512 8.93397 28.3953 9.52008 28.1526C10.1062 27.9099 10.7344 27.785 11.3688 27.7852C12.0033 27.7849 12.6316 27.9096 13.2178 28.1523C13.8041 28.3949 14.3367 28.7508 14.7854 29.1994C15.234 29.6481 15.5899 30.1807 15.8325 30.767C16.0752 31.3532 16.1999 31.9815 16.1996 32.616M29.4842 32.616C29.4839 31.9815 29.6087 31.3532 29.8513 30.767C30.094 30.1807 30.4498 29.6481 30.8985 29.1994C31.3471 28.7508 31.8798 28.3949 32.466 28.1523C33.0523 27.9096 33.6806 27.7849 34.3151 27.7852C34.9495 27.7849 35.5779 27.9096 36.1641 28.1523C36.7503 28.3949 37.283 28.7508 37.7317 29.1994C38.1803 29.6481 38.5361 30.1807 38.7788 30.767C39.0215 31.3532 39.1462 31.9815 39.1459 32.616" fill="#564DCA"/>
<path d="M6.53906 32.616C6.53876 31.9816 6.66347 31.3534 6.90607 30.7672C7.14866 30.1811 7.50439 29.6484 7.95291 29.1998C8.40144 28.7512 8.93397 28.3953 9.52008 28.1526C10.1062 27.9099 10.7344 27.785 11.3688 27.7852C12.0033 27.7849 12.6316 27.9096 13.2178 28.1523C13.8041 28.3949 14.3367 28.7508 14.7854 29.1994C15.234 29.6481 15.5899 30.1807 15.8325 30.767C16.0752 31.3532 16.1999 31.9815 16.1996 32.616M29.4842 32.616C29.4839 31.9815 29.6087 31.3532 29.8513 30.767C30.094 30.1807 30.4498 29.6481 30.8985 29.1994C31.3471 28.7508 31.8798 28.3949 32.466 28.1523C33.0523 27.9096 33.6806 27.7849 34.3151 27.7852C34.9495 27.7849 35.5779 27.9096 36.1641 28.1523C36.7503 28.3949 37.283 28.7508 37.7317 29.1994C38.1803 29.6481 38.5361 30.1807 38.7788 30.767C39.0215 31.3532 39.1462 31.9815 39.1459 32.616" stroke="#564DCA" stroke-width="3" stroke-miterlimit="10"/>
<path d="M29.8392 30.8174C29.5418 30.0841 29.4292 29.289 29.5112 28.5019C29.5933 27.7149 29.8675 26.96 30.3098 26.3039C30.752 25.6477 31.3488 25.1102 32.0476 24.7388C32.7463 24.3675 33.5256 24.1735 34.3169 24.174C34.9514 24.1737 35.5797 24.2985 36.166 24.5411C36.7522 24.7838 37.2849 25.1396 37.7335 25.5883C38.1822 26.0369 38.538 26.5696 38.7807 27.1558C39.0234 27.7421 39.1481 28.3704 39.1478 29.0049C39.1462 29.6257 39.0276 30.2406 38.7981 30.8174M21.0438 32.6289C21.0492 35.0903 20.1147 37.4609 18.4312 39.2565C16.7476 41.0522 14.4422 42.1374 11.9855 42.2906H11.3832C10.1145 42.2906 8.8582 42.0405 7.68613 41.5548C6.51406 41.0691 5.44919 40.3572 4.55237 39.4597C3.65514 38.5628 2.94343 37.4979 2.45789 36.3258C1.97236 35.1538 1.72252 33.8975 1.72266 32.6289H21.0438ZM22.8564 18.7409V7.26772V18.7409ZM3.53523 9.68258H42.1775H3.53523ZM43.9901 32.6289C43.9954 35.0903 43.0609 37.4609 41.3774 39.2565C39.6939 41.0522 37.3884 42.1374 34.9318 42.2906H34.3295C33.061 42.2904 31.8049 42.0403 30.633 41.5546C29.4612 41.0689 28.3965 40.357 27.4998 39.4597C26.6024 38.5629 25.8904 37.498 25.4047 36.326C24.919 35.1539 24.669 33.8976 24.6689 32.6289H43.9901ZM22.8564 7.26772C23.326 7.25104 23.7707 7.05277 24.097 6.71467C24.4234 6.37657 24.6057 5.92503 24.6057 5.45515C24.6057 4.98527 24.4234 4.53373 24.097 4.19563C23.7707 3.85753 23.326 3.65926 22.8564 3.64258C22.3868 3.65926 21.942 3.85753 21.6157 4.19563C21.2894 4.53373 21.107 4.98527 21.107 5.45515C21.107 5.92503 21.2894 6.37657 21.6157 6.71467C21.942 7.05277 22.3868 7.25104 22.8564 7.26772Z" fill="#564DCA"/>
<path d="M29.8392 30.8174C29.5418 30.0841 29.4292 29.289 29.5112 28.5019C29.5933 27.7149 29.8675 26.96 30.3098 26.3039C30.752 25.6477 31.3488 25.1102 32.0476 24.7388C32.7463 24.3675 33.5256 24.1735 34.3169 24.174C34.9514 24.1737 35.5797 24.2985 36.166 24.5411C36.7522 24.7838 37.2849 25.1396 37.7335 25.5883C38.1822 26.0369 38.538 26.5696 38.7807 27.1558C39.0234 27.7421 39.1481 28.3704 39.1478 29.0049C39.1462 29.6257 39.0276 30.2406 38.7981 30.8174M22.8564 18.7409V7.26772M22.8564 7.26772C23.326 7.25104 23.7707 7.05277 24.097 6.71467C24.4234 6.37657 24.6057 5.92503 24.6057 5.45515C24.6057 4.98527 24.4234 4.53373 24.097 4.19563C23.7707 3.85753 23.326 3.65926 22.8564 3.64258C22.3868 3.65926 21.942 3.85753 21.6157 4.19563C21.2894 4.53373 21.107 4.98527 21.107 5.45515C21.107 5.92503 21.2894 6.37657 21.6157 6.71467C21.942 7.05277 22.3868 7.25104 22.8564 7.26772ZM3.53523 9.68258H42.1775M21.0438 32.6289C21.0492 35.0903 20.1147 37.4609 18.4311 39.2565C16.7476 41.0522 14.4422 42.1374 11.9855 42.2906H11.3832C10.1145 42.2906 8.8582 42.0405 7.68613 41.5548C6.51406 41.0691 5.44919 40.3572 4.55237 39.4597C3.65514 38.5628 2.94343 37.4979 2.45789 36.3258C1.97236 35.1538 1.72252 33.8975 1.72266 32.6289H21.0438ZM43.9901 32.6289C43.9954 35.0903 43.0609 37.4609 41.3774 39.2565C39.6939 41.0522 37.3884 42.1374 34.9318 42.2906H34.3295C33.061 42.2904 31.8049 42.0403 30.633 41.5546C29.4612 41.0689 28.3965 40.357 27.4998 39.4597C26.6024 38.5629 25.8904 37.498 25.4047 36.326C24.919 35.1539 24.669 33.8976 24.6689 32.6289H43.9901Z" stroke="#564DCA" stroke-width="3" stroke-miterlimit="10"/>
<path d="M2.32422 28.4029L11.9848 11.5801H12.0831L20.4408 28.4029M25.2705 28.4029L34.9311 11.5801H35.0294L43.3871 28.4029" stroke="#00B67A" stroke-width="3" stroke-miterlimit="10" stroke-linecap="round"/>
</svg>
