<svg width="408" height="240" fill="none" xmlns="http://www.w3.org/2000/svg"><path fill="#D7E6FF" d="M0 0h408v240H0z"/><path d="M220.121 134.678l31.988 10.057c.151.038.265.076.416.151 1.966.794 4.083 3.29 4.764 5.105.718 1.928.945 4.046 1.134 6.087.227 2.647.341 5.105.341 7.752 0 .453-2.193.907-6.05 1.285-.227-2.004-.34-3.138-.567-5.218-.303-2.571-.567-5.142-1.437-7.562-.87-2.42-2.306-4.726-4.499-6.087-1.475-.908-3.214-1.362-4.916-1.777a234.563 234.563 0 01-20.72-6.428c-1.021-.341-2.004-.719-2.911-1.21-.416-.227-.87-.53-1.097-.945-.227-.416-.227-.908-.227-1.324v-2.647h2.118c.038.416.038.719.151 1.021.189 1.021.87 1.475 1.512 1.74z" fill="#85C0FA"/><path d="M204.657 103.03c-.454-5.066-.605-10.246-2.193-15.086-2.344-7.26-8.054-13.31-15.124-16.183-7.071-2.836-15.276-2.533-22.006 1.02 2.647-18.526 19.056-32.78 38.869-32.78 21.703 0 39.285 17.09 39.285 38.188 0 2.798-.302 5.52-.907 8.167h-.038c-4.84 5.293-10.776 9.112-17.393 11.872-6.466 2.723-13.46 4.197-20.493 4.802z" fill="#AFD6FC"/><path d="M208.249 124.28a275.396 275.396 0 00-.454-8.016v-.038c3.744-.302 7.298-1.172 10.663-2.42v13.272h-2.155c0-2.307-2.193-3.97-4.386-3.365a26.796 26.796 0 01-3.668.567z" fill="#85C0FA"/><path d="M218.458 127.04v4.84h-2.156v-4.84h2.156z" fill="#85C0FA"/><path d="M216.492 135.85c-1.778 1.21-4.613 2.155-7.941 2.609-.037-4.651-.113-9.453-.302-14.217a17.864 17.864 0 003.63-.567 3.465 3.465 0 014.386 3.365v7.486c.038.416.038.908.227 1.324z" fill="#AFD6FC"/><path d="M189.381 121.557c6.088 2.912 12.1 3.744 18.83 2.723h.076c.189 4.764.264 9.566.302 14.217a28.01 28.01 0 01-4.083.302h-.719c-8.053 0-14.595-2.571-14.67-5.747.151-.378.227-.832.264-1.399-.037-3.403-.037-6.73 0-10.096z" fill="#AFD6FC"/><path d="M204.657 103.03c7.032-.605 14.027-2.079 20.569-4.802 6.616-2.722 12.553-6.579 17.392-11.872h.038c-2.798 12.59-12.024 22.837-24.161 27.413a38.419 38.419 0 01-10.662 2.419c-2.193-4.045-2.798-8.545-3.176-13.158z" fill="#85C0FA"/><path d="M168.208 93.502c2.912 3.516 7.411 5.331 11.797 6.579 8.129 2.382 15.918 3.932 24.312 2.949.114 0 .189-.038.303-.038.378 4.613 1.021 9.113 3.138 13.196a36.535 36.535 0 01-3.554.151 40.428 40.428 0 01-14.86-2.835c-9.452-3.706-17.052-10.928-21.136-20.002z" fill="#85C0FA"/><path d="M189.343 121.557v-7.978a40.279 40.279 0 0014.86 2.836c1.21 0 2.382-.038 3.554-.151v.038c.189 2.609.34 5.331.454 8.016h-.076c-6.692.983-12.704.151-18.792-2.761z" fill="#85C0FA"/><path d="M165.296 72.82c6.731-3.592 14.973-3.895 22.006-1.021 7.071 2.873 12.78 8.923 15.124 16.183 1.588 4.802 1.739 10.02 2.193 15.086-.113 0-.189.038-.302.038-8.394.983-16.183-.605-24.312-2.949-4.386-1.286-8.848-3.063-11.797-6.58-2.156-4.688-3.328-9.868-3.328-15.313 0-1.89.152-3.705.416-5.444zm22.346 61.631c.567-.227 1.135-.567 1.437-1.399.038 3.176 6.617 5.747 14.671 5.747h.718c1.437 0 2.76-.151 4.084-.303 3.327-.453 6.163-1.399 7.94-2.608.227.415.68.718 1.096.945.945.491 1.929.869 2.912 1.21a234.563 234.563 0 0020.72 6.428c1.701.415 3.441.869 4.915 1.777 2.193 1.361 3.668 3.629 4.5 6.087.869 2.42 1.134 4.991 1.436 7.562.227 2.042.379 3.176.568 5.218-9.037.908-27.3 1.55-48.36 1.55h-.416c-30.286 0-54.863-1.285-54.863-2.836.038-2.646.151-5.331.378-7.978.151-2.079.416-4.159 1.097-6.125.68-1.815 2.798-4.31 4.764-5.104.113-.038.264-.114.378-.151l20.758-6.542 11.267-3.478z" fill="#AFD6FC"/><path d="M218.534 132.901h.036m-29.188-1.286v.075c0 .568-.114 1.021-.265 1.399-.303.794-.87 1.172-1.437 1.399m-32.404 10.171l-.113.038m32.479-10.246l-11.191 3.554h-.038l-20.758 6.503m0 0c-.114.038-.265.076-.378.151-1.967.794-4.084 3.29-4.765 5.105-.718 1.928-.945 4.046-1.096 6.125-.227 2.647-.34 5.294-.378 7.978m69.42-50.061v18.074m-.038-.076v.075c.038.416.038.719.151 1.021.265 1.059.908 1.513 1.55 1.777m32.404 10.209h.113m-32.517-10.209l31.988 10.058m0 0c.151.038.265.076.416.151 1.966.794 4.084 3.29 4.764 5.105.719 1.928.945 4.045 1.134 6.087.227 2.647.341 5.105.341 7.751" stroke="#1D1D1B" stroke-width=".563" stroke-miterlimit="10"/><path d="M204.619 103.03h.037" stroke="#81A229" stroke-width=".563" stroke-miterlimit="10"/><path d="M258.764 163.829c0 .454-2.193.908-6.05 1.286-9.037.907-27.299 1.55-48.36 1.55h-.416c-30.286 0-54.863-1.285-54.863-2.836m40.269-50.25v18.111m-24.048-58.87C167.981 54.255 184.391 40 204.203 40c21.704 0 39.285 17.09 39.285 38.189 0 2.798-.302 5.52-.907 8.167-2.798 12.59-12.024 22.837-24.161 27.412a38.384 38.384 0 01-10.662 2.42 36.57 36.57 0 01-3.555.151 40.448 40.448 0 01-14.859-2.835c-9.491-3.744-17.09-10.965-21.136-20.04-2.155-4.689-3.328-9.868-3.328-15.313 0-1.777.152-3.592.416-5.331z" stroke="#1D1D1B" stroke-width=".563" stroke-miterlimit="10"/><path opacity=".7" d="M243.943 103.03c-.454-.34-3.403-2.117-3.894-2.344a6.522 6.522 0 00-2.572-.529h-33.5a6.462 6.462 0 00-6.465 6.465v63.635c0 2.155 1.058 4.046 2.684 5.256l.076.038c.265.189.491.34.794.491l2.193 1.324a6.4 6.4 0 003.289.907h33.425a6.462 6.462 0 006.465-6.466v-63.672c0-2.042-.983-3.895-2.495-5.105z" fill="#C3F53A" stroke="#1D1D1B" stroke-width=".563" stroke-miterlimit="10" stroke-linecap="round"/><path d="M237.477 176.76h-33.5a6.463 6.463 0 01-6.465-6.466v-63.635a6.463 6.463 0 016.465-6.466h33.5a6.464 6.464 0 016.466 6.466v63.635a6.463 6.463 0 01-6.466 6.466z" stroke="#1D1D1B" stroke-width=".563" stroke-miterlimit="10" stroke-linecap="round"/><path d="M203.977 176.723h33.5a6.464 6.464 0 006.466-6.466v-7.6h-46.431v7.6a6.463 6.463 0 006.465 6.466z" fill="#0564C1" stroke="#1D1D1B" stroke-width=".563" stroke-miterlimit="10" stroke-linecap="round"/><path d="M197.512 162.62l2.457 1.55h46.205l-2.231-1.55h-46.431z" fill="#0564C1" stroke="#1D1D1B" stroke-width=".563" stroke-miterlimit="10" stroke-linecap="round" stroke-linejoin="round"/><path d="M206.473 178.273h33.5a6.463 6.463 0 006.466-6.466v-7.599H199.97v7.599c0 3.555 2.911 6.466 6.503 6.466z" fill="#0077F9" stroke="#001125" stroke-width=".563" stroke-miterlimit="10"/><path d="M246.438 108.135a6.463 6.463 0 00-6.465-6.466h-33.5a6.463 6.463 0 00-6.466 6.466v56.035h46.469v-56.035h-.038z" fill="#C3F53A" fill-opacity=".35" stroke="#1D1D1B" stroke-width=".563" stroke-miterlimit="10" stroke-linecap="round"/><path opacity=".35" d="M199.969 164.169v-56.035a6.464 6.464 0 016.466-6.466h33.538c1.096 0 2.117.265 3.025.756-1.059-.643-2.571-1.55-2.949-1.701a6.509 6.509 0 00-2.572-.53h-33.5a6.463 6.463 0 00-6.465 6.466v55.997l2.457 1.513z" fill="#C3F53A" stroke="#1D1D1B" stroke-width=".563" stroke-miterlimit="10" stroke-linecap="round"/><path d="M234.453 143.072a6.097 6.097 0 00-.265-1.399c-.151-.416-.643-.983-1.097-1.172-.037 0-.075-.038-.075-.038l-7.298-2.307s-.378-3.365-.378-4.764c2.761-1.059 4.878-3.403 5.521-6.276.151-.605.227-1.21.227-1.853 0-4.802-4.008-8.734-8.962-8.734-4.537 0-8.28 3.251-8.885 7.486-.076.416-.076.832-.076 1.248 0 1.248.265 2.42.757 3.478.945 2.08 2.684 3.706 4.839 4.576 0 .605-.378 4.764-.378 4.764l-7.297 2.306c-.038 0-.076.038-.076.038-.454.189-.945.756-1.096 1.172a5.697 5.697 0 00-.265 1.399 28.98 28.98 0 00-.076 1.815c0 .34 5.596.643 12.516.643h.113c4.802 0 8.999-.152 11.041-.341.869-.075 1.361-.189 1.361-.302-.076-.567-.076-1.134-.151-1.739zm-29.946 1.474v5.407h5.406m0-34.634h-5.406v5.407m34.672 0v-5.407h-5.407m0 35.164h5.407v-5.407" stroke="#1D1D1B" stroke-width=".563" stroke-miterlimit="10" stroke-linecap="round"/><path d="M205.263 107.756a1.474 1.474 0 100-2.948 1.474 1.474 0 000 2.948z" fill="#3095F7" stroke="#1D1D1B" stroke-width=".563" stroke-miterlimit="10" stroke-linecap="round"/><path d="M209.762 107.756a1.475 1.475 0 100-2.95 1.475 1.475 0 000 2.95z" fill="#85C0FA" stroke="#1D1D1B" stroke-width=".563" stroke-miterlimit="10" stroke-linecap="round"/><path d="M214.224 107.756a1.474 1.474 0 10.001-2.949 1.474 1.474 0 00-.001 2.949z" fill="#0564C1" stroke="#1D1D1B" stroke-width=".563" stroke-miterlimit="10" stroke-linecap="round"/><path d="M247.913 97.737l2.836-3.668m-6.542 3.251l.416-2.873m4.575 6.882l3.1-1.21m-12.703 64.051v4.726a3.293 3.293 0 01-3.29 3.29 3.29 3.29 0 00-3.289 3.289v2.836m-25.258-14.141v4.726a3.292 3.292 0 003.289 3.29 3.292 3.292 0 013.29 3.289v2.836" stroke="#1D1D1B" stroke-width=".563" stroke-miterlimit="10" stroke-linecap="round"/><path d="M223.45 172.45a2.722 2.722 0 100-5.445 2.722 2.722 0 000 5.445z" fill="#C3F53A"/><path d="M220.727 169.728c0 .983 1.21 1.739 2.723 1.739 1.512 0 2.722-.794 2.722-1.739a2.711 2.711 0 01-2.722 2.722 2.711 2.711 0 01-2.723-2.722z" fill="#AACE28"/><path d="M223.45 172.45a2.722 2.722 0 100-5.445 2.722 2.722 0 000 5.445zm-.001 0v5.823m2.723-8.545a2.711 2.711 0 01-2.723 2.722" stroke="#1D1D1B" stroke-width=".563" stroke-miterlimit="10" stroke-linecap="round"/><path d="M204.657 200.732c30.3 0 54.863-.931 54.863-2.079 0-1.149-24.563-2.08-54.863-2.08s-54.863.931-54.863 2.08c0 1.148 24.563 2.079 54.863 2.079z" fill="#1D1D1B" fill-opacity=".25"/></svg>